<svg width="70" height="60" viewBox="0 0 70 60" fill="none" xmlns="http://www.w3.org/2000/svg">
<rect x="0.5" y="0.5" width="69" height="59" rx="3.5" stroke="#743FE4"/>
<path d="M21.6667 40C21.1944 40 20.7986 39.8403 20.4792 39.5208C20.1597 39.2014 20 38.8056 20 38.3333C20 37.8611 20.1597 37.4653 20.4792 37.1458C20.7986 36.8264 21.1944 36.6667 21.6667 36.6667H48.3333C48.8056 36.6667 49.2014 36.8264 49.5208 37.1458C49.8403 37.4653 50 37.8611 50 38.3333C50 38.8056 49.8403 39.2014 49.5208 39.5208C49.2014 39.8403 48.8056 40 48.3333 40H21.6667ZM21.6667 31.6667C21.1944 31.6667 20.7986 31.5069 20.4792 31.1875C20.1597 30.8681 20 30.4722 20 30C20 29.5278 20.1597 29.1319 20.4792 28.8125C20.7986 28.4931 21.1944 28.3333 21.6667 28.3333H48.3333C48.8056 28.3333 49.2014 28.4931 49.5208 28.8125C49.8403 29.1319 50 29.5278 50 30C50 30.4722 49.8403 30.8681 49.5208 31.1875C49.2014 31.5069 48.8056 31.6667 48.3333 31.6667H21.6667ZM21.6667 23.3333C21.1944 23.3333 20.7986 23.1736 20.4792 22.8542C20.1597 22.5347 20 22.1389 20 21.6667C20 21.1944 20.1597 20.7986 20.4792 20.4792C20.7986 20.1597 21.1944 20 21.6667 20H48.3333C48.8056 20 49.2014 20.1597 49.5208 20.4792C49.8403 20.7986 50 21.1944 50 21.6667C50 22.1389 49.8403 22.5347 49.5208 22.8542C49.2014 23.1736 48.8056 23.3333 48.3333 23.3333H21.6667Z" fill="#743FE4"/>
</svg>
