<svg width="23" height="16" viewBox="0 0 23 16" fill="none" xmlns="http://www.w3.org/2000/svg">
<path fill-rule="evenodd" clip-rule="evenodd" d="M3.92924 15.9234H4.43501V13.2055H3.85143L2.9566 14.3922L2.10067 13.2055H1.51709V15.9234H2.02286V13.9328L2.91769 15.1195H2.9955L3.92924 13.9711V15.9234ZM18.5578 13.2055H17.9353L18.9857 14.8133V15.9234H19.4915V14.8133L20.6198 13.2055H19.9973L19.2581 14.3156L18.5578 13.2055ZM17.8575 15.8851L17.0404 14.9664C17.5462 14.8515 17.7407 14.4687 17.7407 14.0859C17.7407 13.6266 17.3906 13.2055 16.7292 13.2055C16.3012 13.2055 15.8344 13.2055 15.4064 13.2055V15.9234H15.9511V15.0047H16.4569L17.235 15.9234H17.8575V15.8851ZM16.7292 13.6648C17.0404 13.6648 17.1961 13.8945 17.1961 14.1242C17.1961 14.3539 17.0793 14.5453 16.7292 14.5453H15.9511V13.6648H16.7292ZM15.0173 15.4257H13.4611V14.8133H14.9395V14.3156H13.4611V13.7031H15.0173V13.2055H12.9164C12.9164 14.1242 12.9164 15.0047 12.9164 15.9234H15.0173V15.4257ZM11.2046 15.9234H11.7493V13.6648H12.6052V13.2055C11.8271 13.2055 11.1268 13.2055 10.3487 13.2055V13.6648H11.2046V15.9234ZM9.99852 13.6648C9.80399 13.2437 9.37603 13.1289 8.90916 13.1289C8.40339 13.1289 7.85871 13.3586 7.85871 13.8945C7.85871 14.507 8.36448 14.6601 8.94806 14.7367C9.29821 14.775 9.57055 14.8898 9.57055 15.1195C9.57055 15.4257 9.25931 15.5406 8.94806 15.5406C8.59791 15.5406 8.28667 15.4257 8.16995 15.1195L7.74199 15.3109C7.93652 15.8085 8.36448 15.9999 8.94806 15.9999C9.57055 15.9999 10.1152 15.732 10.1152 15.1195C10.1152 14.4687 9.57055 14.3156 8.98697 14.2773C8.63682 14.239 8.36448 14.1625 8.36448 13.9328C8.36448 13.7031 8.55901 13.55 8.94806 13.55C9.25931 13.55 9.49274 13.7031 9.60946 13.8562L9.99852 13.6648ZM7.1195 15.9234H7.70308L6.4581 13.2055H5.87452L4.62954 15.9234H5.21312L5.44656 15.4257H6.88607L7.1195 15.9234ZM6.69154 14.9281H5.64109L6.18576 13.7797L6.69154 14.9281Z" fill="#55597D"/>
<path fill-rule="evenodd" clip-rule="evenodd" d="M17.2743 3.59712C16.574 2.18074 15.0956 1.75965 13.6561 1.75965C12.9558 1.75965 12.2555 1.91277 11.6719 2.14246C11.2828 2.41042 11.0105 2.67838 10.8549 2.86979C10.9716 2.37214 11.2439 2.02761 11.6719 1.79793V0.726074C9.92114 0.726074 8.63725 0.726074 6.9254 0.726074V2.52526H9.6877V6.62128C9.6877 8.19079 9.29865 9.41576 7.50899 9.41576C5.95276 9.41576 5.09684 8.72672 4.94122 7.34861H2.95703C3.22937 9.87513 5.05793 11.215 7.50899 11.215C8.71506 11.215 9.29865 10.9087 9.99895 10.3345C9.88223 10.1048 9.80442 9.87513 9.76551 9.56889C9.88223 9.72201 10.0379 9.91341 10.1935 10.1431C10.9716 11.1001 12.2166 11.4446 13.695 11.4446C14.2397 11.4446 14.7454 11.4064 15.2123 11.2532L14.512 10.8321L13.4226 10.2197V9.91341C12.5278 9.83685 11.6719 9.45405 11.2439 8.72672C11.4774 8.15251 11.633 7.46346 11.633 6.73612C12.2555 6.96581 12.9558 7.11893 13.695 7.19549C13.8895 7.23377 14.084 7.23377 14.2786 7.27205L14.512 7.15721L15.6014 6.54472L16.6907 7.15721L17.4299 7.5783C16.9631 6.2002 15.4457 5.81739 13.8506 5.62599C12.7223 5.51115 11.7886 5.28146 11.7886 4.47757C11.7886 3.78852 12.4111 3.25259 13.695 3.25259C14.7065 3.25259 15.5625 3.75024 15.9126 4.28617L17.2743 3.59712Z" fill="#55597D"/>
<path fill-rule="evenodd" clip-rule="evenodd" d="M18.6748 11.5978C19.3362 11.6744 20.1143 11.6361 20.5812 11.1767C21.0091 10.7556 21.1259 10.1431 21.1259 9.56893V7.61662C21.1259 6.851 21.3982 6.2768 22.0985 6.16195V5.4729C21.3982 5.35806 21.1259 4.74557 21.1259 4.01824V2.06593C21.1259 1.49172 21.0091 0.840954 20.5812 0.458149C20.1143 -0.0394989 19.3362 -0.0394989 18.6748 0.0370622V0.726113C19.5696 0.649552 19.9587 1.1472 19.9587 2.14249V4.01824C19.9587 4.32449 19.9198 4.78385 20.0365 5.0901C20.1921 5.39634 20.5812 5.62603 20.9313 5.81743C20.5812 6.00883 20.1921 6.23852 20.0365 6.54476C19.9198 6.851 19.9587 7.31037 19.9587 7.61662V9.49236C19.9587 10.5642 19.6085 10.9087 18.6748 10.8705V11.5978Z" fill="#55597D"/>
<path fill-rule="evenodd" clip-rule="evenodd" d="M15.6015 5.97083L16.9243 6.73644L18.2471 7.46377V8.99499V10.5262L16.9243 11.2918L15.6015 12.0574L14.2398 11.2918L12.917 10.5262V8.99499V7.46377L14.2398 6.73644L15.6015 5.97083ZM15.6015 6.54503L16.6908 7.15752L17.7413 7.77001V8.99499V10.22L16.6908 10.8325L15.6015 11.4832L14.5121 10.8325L13.4228 10.22V8.99499V7.77001L14.5121 7.15752L15.6015 6.54503Z" fill="url(#paint0_linear_6207_1581)"/>
<path fill-rule="evenodd" clip-rule="evenodd" d="M14.0448 9.26248V9.64529H13.7725V8.34375C13.967 8.34375 14.1615 8.34375 14.395 8.34375C15.0174 8.34375 15.0174 9.26248 14.395 9.26248H14.0448ZM15.4454 9.2242H15.2509V9.64529H14.9785V8.34375H15.0174C15.212 8.34375 15.4065 8.34375 15.601 8.34375C15.8734 8.34375 16.0679 8.49687 16.0679 8.80312C16.0679 8.99452 15.9901 9.14764 15.7956 9.18592L16.1457 9.60701V9.64529H15.8345L15.4454 9.2242ZM16.8071 8.34375C17.2351 8.34375 17.5074 8.61171 17.4685 8.99452C17.4685 9.37733 17.2351 9.68357 16.8071 9.68357C16.418 9.68357 16.1457 9.41561 16.1457 8.99452C16.1457 8.61171 16.418 8.34375 16.8071 8.34375ZM14.0448 8.61171V8.99452H14.395C14.6673 8.99452 14.6673 8.61171 14.395 8.61171H14.0448ZM15.2509 8.61171V8.95624H15.601C15.7177 8.95624 15.7956 8.91796 15.7956 8.80312C15.7956 8.68828 15.7177 8.61171 15.601 8.61171H15.2509ZM16.8071 8.57343C16.5737 8.57343 16.418 8.76484 16.418 8.99452C16.418 9.2242 16.5737 9.41561 16.8071 9.41561C17.0794 9.41561 17.1962 9.2242 17.1962 8.99452C17.1962 8.76484 17.0794 8.57343 16.8071 8.57343Z" fill="#55597D"/>
<path fill-rule="evenodd" clip-rule="evenodd" d="M3.42369 11.5978C2.7623 11.6744 2.02309 11.6361 1.51732 11.1767C1.08936 10.7556 0.972641 10.1431 0.972641 9.56893V7.61662C0.972641 6.851 0.739207 6.2768 0 6.16195V5.4729C0.739207 5.35806 0.972641 4.74557 0.972641 4.01824V2.06593C0.972641 1.49172 1.08936 0.840954 1.51732 0.458149C2.02309 -0.0394989 2.7623 -0.0394989 3.42369 0.0370622V0.726113C2.52887 0.649552 2.17871 1.1472 2.17871 2.14249V4.01824C2.17871 4.32449 2.17871 4.78385 2.062 5.0901C1.90638 5.39634 1.51732 5.62603 1.16717 5.81743C1.51732 6.00883 1.90638 6.23852 2.062 6.54476C2.17871 6.851 2.17871 7.31037 2.17871 7.61662V9.49236C2.17871 10.5642 2.48996 10.9087 3.42369 10.8705V11.5978Z" fill="#55597D"/>
<defs>
<linearGradient id="paint0_linear_6207_1581" x1="13.0416" y1="9.05265" x2="18.2886" y2="9.05265" gradientUnits="userSpaceOnUse">
<stop stop-color="#4CA5FF"/>
<stop offset="1" stop-color="#B673F8"/>
</linearGradient>
</defs>
</svg>
