<svg width="12" height="12" viewBox="0 0 12 12" fill="none" xmlns="http://www.w3.org/2000/svg">
<path fill-rule="evenodd" clip-rule="evenodd" d="M3.27616 0.166725H8.71866C10.702 0.166725 11.8337 1.28673 11.8337 3.27589V8.72423C11.8337 10.7017 10.7078 11.8334 8.72449 11.8334H3.27616C1.28699 11.8334 0.166992 10.7017 0.166992 8.72423V3.27589C0.166992 1.28673 1.28699 0.166725 3.27616 0.166725ZM6.47866 6.48423H8.13533C8.40366 6.47839 8.61949 6.26256 8.61949 5.99423C8.61949 5.72589 8.40366 5.51006 8.13533 5.51006H6.47866V3.86506C6.47866 3.59673 6.26283 3.38089 5.99449 3.38089C5.72616 3.38089 5.51033 3.59673 5.51033 3.86506V5.51006H3.85949C3.73116 5.51006 3.60866 5.56256 3.51533 5.65006C3.42783 5.74339 3.37533 5.86531 3.37533 5.99423C3.37533 6.26256 3.59116 6.47839 3.85949 6.48423H5.51033V8.13506C5.51033 8.40339 5.72616 8.61922 5.99449 8.61922C6.26283 8.61922 6.47866 8.40339 6.47866 8.13506V6.48423Z" fill="white"/>
</svg>
