<svg width="16" height="16" viewBox="0 0 16 16" fill="none" xmlns="http://www.w3.org/2000/svg">
<path fill-rule="evenodd" clip-rule="evenodd" d="M6.27591 2.16675H11.7184C13.7017 2.16675 14.8334 3.28675 14.8334 5.27591V10.7242C14.8334 12.7017 13.7076 13.8334 11.7242 13.8334H6.27591C4.28675 13.8334 3.16675 12.7017 3.16675 10.7242V5.27591C3.16675 3.28675 4.28675 2.16675 6.27591 2.16675ZM9.47842 8.48425H11.1351C11.4034 8.47842 11.6192 8.26258 11.6192 7.99425C11.6192 7.72591 11.4034 7.51008 11.1351 7.51008H9.47842V5.86508C9.47842 5.59675 9.26258 5.38091 8.99425 5.38091C8.72591 5.38091 8.51008 5.59675 8.51008 5.86508V7.51008H6.85925C6.73091 7.51008 6.60841 7.56258 6.51508 7.65008C6.42758 7.74341 6.37508 7.86533 6.37508 7.99425C6.37508 8.26258 6.59091 8.47842 6.85925 8.48425H8.51008V10.1351C8.51008 10.4034 8.72591 10.6192 8.99425 10.6192C9.26258 10.6192 9.47842 10.4034 9.47842 10.1351V8.48425Z" fill="#42BBFF"/>
</svg>
