<svg width="11" height="12" viewBox="0 0 11 12" fill="none" xmlns="http://www.w3.org/2000/svg">
<path d="M8.25 1.875C7.88533 1.875 7.53559 2.01987 7.27773 2.27773C7.01987 2.53559 6.875 2.88533 6.875 3.25V8.75C6.875 9.11467 7.01987 9.46441 7.27773 9.72227C7.53559 9.98013 7.88533 10.125 8.25 10.125C8.61467 10.125 8.96441 9.98013 9.22227 9.72227C9.48013 9.46441 9.625 9.11467 9.625 8.75C9.625 8.38533 9.48013 8.03559 9.22227 7.77773C8.96441 7.51987 8.61467 7.375 8.25 7.375H2.75C2.38533 7.375 2.03559 7.51987 1.77773 7.77773C1.51987 8.03559 1.375 8.38533 1.375 8.75C1.375 9.11467 1.51987 9.46441 1.77773 9.72227C2.03559 9.98013 2.38533 10.125 2.75 10.125C3.11467 10.125 3.46441 9.98013 3.72227 9.72227C3.98013 9.46441 4.125 9.11467 4.125 8.75V3.25C4.125 2.88533 3.98013 2.53559 3.72227 2.27773C3.46441 2.01987 3.11467 1.875 2.75 1.875C2.38533 1.875 2.03559 2.01987 1.77773 2.27773C1.51987 2.53559 1.375 2.88533 1.375 3.25C1.375 3.61467 1.51987 3.96441 1.77773 4.22227C2.03559 4.48013 2.38533 4.625 2.75 4.625H8.25C8.61467 4.625 8.96441 4.48013 9.22227 4.22227C9.48013 3.96441 9.625 3.61467 9.625 3.25C9.625 2.88533 9.48013 2.53559 9.22227 2.27773C8.96441 2.01987 8.61467 1.875 8.25 1.875Z" stroke="#ADB3CC" stroke-linecap="round" stroke-linejoin="round"/>
</svg>
