<svg width="20" height="20" viewBox="0 0 20 20" fill="none" xmlns="http://www.w3.org/2000/svg">
<path fill-rule="evenodd" clip-rule="evenodd" d="M8.24596 9.35835C7.88138 9.35835 7.5931 9.64169 7.5931 10C7.5931 10.35 7.88138 10.6417 8.24596 10.6417H13.3332V14.625C13.3332 16.6667 11.6459 18.3334 9.56016 18.3334H5.43104C3.35376 18.3334 1.6665 16.675 1.6665 14.6334V5.37502C1.6665 3.32502 3.36224 1.66669 5.43952 1.66669H9.57711C11.6459 1.66669 13.3332 3.32502 13.3332 5.36669V9.35835H8.24596ZM16.3583 7.11685L18.7917 9.54185C18.9167 9.66685 18.9833 9.82519 18.9833 10.0002C18.9833 10.1669 18.9167 10.3335 18.7917 10.4502L16.3583 12.8752C16.2333 13.0002 16.0667 13.0669 15.9083 13.0669C15.7417 13.0669 15.575 13.0002 15.45 12.8752C15.2 12.6252 15.2 12.2169 15.45 11.9669L16.7833 10.6419H13.3333V9.35852H16.7833L15.45 8.03352C15.2 7.78352 15.2 7.37519 15.45 7.12519C15.7 6.86685 16.1083 6.86685 16.3583 7.11685Z" fill="#55597D"/>
</svg>
